<?xml version="1.0" encoding="iso-8859-1"?>
<!-- Generator: Adobe Illustrator 19.0.0, SVG Export Plug-In . SVG Version: 6.00 Build 0)  -->
<svg version="1.1" id="Layer_1" xmlns="http://www.w3.org/2000/svg" xmlns:xlink="http://www.w3.org/1999/xlink" x="0px" y="0px"
	 viewBox="0 0 512 512" style="enable-background:new 0 0 512 512;" xml:space="preserve">
<polygon style="fill:#F2E2D3;" points="242.281,44.373 242.281,44.379 242.276,44.376 242.272,44.379 242.272,44.373 
	50.736,176.728 50.794,176.728 50.794,278.314 50.794,278.314 50.794,443.788 433.75,443.788 433.75,278.314 433.75,278.314 
	433.75,176.728 "/>
<path style="fill:#C7AC91;" d="M207.869,229.378H120.02c-7.806,0-14.134,6.328-14.134,14.134v200.275h116.118V243.512
	C222.004,235.706,215.675,229.378,207.869,229.378z"/>
<path style="fill:#AF9177;" d="M207.877,229.378h-32.428c7.802,0,14.127,6.332,14.127,14.142v200.268h32.428V243.52
	C222.004,235.71,215.679,229.378,207.877,229.378z"/>
<polygon style="fill:#D8C4B4;" points="401.761,154.553 401.322,154.252 401.322,278.314 401.322,278.314 401.322,443.788 
	433.75,443.788 433.75,278.314 433.75,278.314 433.75,176.653 "/>
<path style="fill:#808080;" d="M466.958,428.778H306.766H165.088H15.084c-6.348,0-11.495,5.152-11.495,11.507v20.203
	c0,6.355,5.146,11.507,11.495,11.507h154.459h132.768h164.646c6.348,0,11.495-5.152,11.495-11.507v-20.203
	C478.452,433.93,473.306,428.778,466.958,428.778z"/>
<path style="fill:#FF395A;" d="M484.589,173.295c0-1.288-0.631-2.493-1.688-3.227L249.38,8.064
	c-4.275-2.966-9.941-2.964-14.214,0.004L1.905,170.108c-1.05,0.73-1.68,1.926-1.686,3.206L0,218.261
	c-0.015,3.173,3.541,5.053,6.149,3.25L242.272,58.382v0.006l0.004-0.003l0.004,0.003v-0.006l236.16,163.155
	c2.602,1.797,6.149-0.067,6.149-3.231V173.295z"/>
<path style="fill:#D81942;" d="M482.901,170.069l-30.74-21.326v54.639l26.279,18.155c2.602,1.797,6.149-0.067,6.149-3.231v-45.01
	C484.589,172.008,483.958,170.802,482.901,170.069z"/>
<path style="fill:#FFA227;" d="M504.636,348.239h-6.746c-23.605,0-35.426-28.569-18.735-45.278l4.771-4.776
	c2.876-2.879,2.876-7.546,0-10.425l-22.59-22.614c-2.876-2.879-7.539-2.879-10.415,0l-4.77,4.775
	c-16.691,16.709-45.23,4.875-45.23-18.755v-6.753c0-4.071-3.297-7.372-7.364-7.372H361.61c-4.067,0-7.364,3.3-7.364,7.372v6.753
	c0,23.63-28.539,35.463-45.23,18.755l-4.77-4.775c-2.876-2.879-7.539-2.879-10.414,0l-22.59,22.614
	c-2.876,2.879-2.876,7.547,0,10.425l4.771,4.775c16.691,16.708,4.87,45.278-18.735,45.278h-6.746c-4.067,0-7.364,3.3-7.364,7.372
	v31.981c0,4.071,3.297,7.372,7.364,7.372h6.746c23.605,0,35.426,28.569,18.735,45.277l-4.771,4.776
	c-2.876,2.879-2.876,7.546,0,10.425l22.59,22.614c2.876,2.879,7.538,2.879,10.414,0l4.77-4.775
	c16.691-16.709,45.23-4.875,45.23,18.754v6.754c0,4.071,3.297,7.372,7.364,7.372h31.947c4.067,0,7.364-3.301,7.364-7.372v-6.753
	c0-23.63,28.539-35.463,45.23-18.755l4.77,4.775c2.876,2.879,7.539,2.879,10.415,0l22.59-22.614c2.876-2.879,2.876-7.546,0-10.425
	l-4.771-4.776c-16.691-16.709-4.87-45.277,18.735-45.277h6.746c4.067,0,7.364-3.301,7.364-7.372V355.61
	C512,351.539,508.703,348.239,504.636,348.239z M377.582,427.672c-30.935,0-56.013-25.104-56.013-56.072
	s25.078-56.072,56.013-56.072s56.013,25.104,56.013,56.072S408.517,427.672,377.582,427.672z"/>
<path style="fill:#F78B0B;" d="M504.636,348.238h-6.746c-23.605,0-35.426-28.569-18.735-45.278l4.77-4.776
	c2.876-2.879,2.876-7.547,0-10.425l-22.59-22.614c-2.876-2.879-7.538-2.879-10.414,0l-4.77,4.775
	c-2.311,2.313-4.853,4.06-7.51,5.324l12.502,12.515c2.876,2.879,2.876,7.547,0,10.425l-4.771,4.776
	c-16.691,16.708-4.87,45.278,18.735,45.278h6.746c4.067,0,7.364,3.301,7.364,7.372v31.981c0,4.071-3.297,7.372-7.364,7.372h-6.746
	c-23.605,0-35.426,28.569-18.735,45.277l4.771,4.776c2.876,2.879,2.876,7.546,0,10.425l-12.502,12.515
	c2.657,1.263,5.2,3.011,7.51,5.324l4.77,4.775c2.876,2.879,7.539,2.879,10.414,0l22.59-22.614c2.876-2.879,2.876-7.546,0-10.425
	l-4.77-4.776c-16.691-16.709-4.87-45.277,18.735-45.277h6.746c4.067,0,7.364-3.301,7.364-7.372V355.61
	C512,351.539,508.703,348.238,504.636,348.238z"/>
<g>
</g>
<g>
</g>
<g>
</g>
<g>
</g>
<g>
</g>
<g>
</g>
<g>
</g>
<g>
</g>
<g>
</g>
<g>
</g>
<g>
</g>
<g>
</g>
<g>
</g>
<g>
</g>
<g>
</g>
</svg>
